<svg width="1024" height="1024" viewBox="0 0 1024 1024" fill="none" xmlns="http://www.w3.org/2000/svg">
<rect width="1024" height="1024" fill="url(#paint0_linear_2_87)"/>
<rect width="1024" height="1024" fill="white"/>
<rect width="1024" height="1024" fill="url(#paint1_linear_2_87)"/>
<path fill-rule="evenodd" clip-rule="evenodd" d="M512.5 137C305.036 137 137 305.036 137 512.5C137 678.659 244.487 819.002 393.748 868.756C412.523 872.041 419.564 860.776 419.564 850.919C419.564 842.001 419.094 812.431 419.094 780.982C324.75 798.349 300.342 757.983 292.832 736.861C288.608 726.066 270.303 692.74 254.344 683.822C241.201 676.781 222.426 659.414 253.874 658.945C283.445 658.476 304.567 686.169 311.608 697.434C345.403 754.228 399.381 738.269 420.972 728.412C424.258 704.005 434.114 687.577 444.91 678.189C361.361 668.802 274.058 636.415 274.058 492.786C274.058 451.951 288.608 418.156 312.546 391.871C308.791 382.483 295.649 343.994 316.301 292.363C316.301 292.363 347.749 282.506 419.564 330.852C449.604 322.403 481.521 318.179 513.439 318.179C545.356 318.179 577.274 322.403 607.314 330.852C679.128 282.037 710.576 292.363 710.576 292.363C731.229 343.994 718.086 382.483 714.331 391.871C738.269 418.156 752.82 451.481 752.82 492.786C752.82 636.884 665.047 668.802 581.498 678.189C595.11 689.924 606.844 712.454 606.844 747.657C606.844 797.88 606.375 838.246 606.375 850.919C606.375 860.776 613.416 872.511 632.191 868.756C780.513 819.002 888 678.189 888 512.5C888 305.036 719.964 137 512.5 137Z" fill="white"/>
<rect x="702" y="181" width="162" height="123" fill="white"/>
<path d="M765.208 93.9832C739.445 96.2449 712.895 106.078 691.655 121.222C681.428 128.498 665.498 144.428 658.222 154.655C621.445 206.28 621.445 274.72 658.222 326.345C665.498 336.572 681.428 352.502 691.655 359.778C743.182 396.457 811.818 396.457 863.345 359.778C873.572 352.502 889.502 336.572 896.778 326.345C933.555 274.72 933.555 206.28 896.778 154.655C889.502 144.428 873.572 128.498 863.345 121.222C834.927 100.965 798.937 91.0332 765.208 93.9832ZM834.238 203.33C835.812 204.707 836.5 206.575 836.5 208.935C836.5 212.18 834.14 214.737 799.92 248.957C779.86 269.115 762.16 286.127 760.587 286.815C758.522 287.7 757.145 287.7 754.982 286.717C753.408 286.127 744.558 277.965 735.315 268.623C721.057 254.168 718.5 251.12 718.5 248.662C718.5 244.138 721.843 240.5 726.072 240.5C729.218 240.5 730.89 241.778 743.673 254.463L757.833 268.427L791.562 234.797C822.537 203.92 825.585 201.167 828.633 201.167C830.698 201.167 832.862 201.953 834.238 203.33V203.33Z" fill="#2CA44E"/>
<defs>
<linearGradient id="paint0_linear_2_87" x1="1024" y1="0" x2="0" y2="1024" gradientUnits="userSpaceOnUse">
<stop stop-color="#1A1E21"/>
<stop offset="1" stop-color="#070708"/>
</linearGradient>
<linearGradient id="paint1_linear_2_87" x1="1024" y1="0" x2="0" y2="1024" gradientUnits="userSpaceOnUse">
<stop stop-color="#191D21"/>
<stop offset="1" stop-color="#060707"/>
</linearGradient>
</defs>
</svg>
