<svg version="1.0" xmlns="http://www.w3.org/2000/svg" width="48" height="48" viewBox="0 0 300 300"><path d="M137.5 1c-26.2 2.3-53.2 12.3-74.8 27.7-10.4 7.4-26.6 23.6-34 34-37.4 52.5-37.4 122.1 0 174.6 7.4 10.4 23.6 26.6 34 34 52.4 37.3 122.2 37.3 174.6 0 10.4-7.4 26.6-23.6 34-34 37.4-52.5 37.4-122.1 0-174.6-7.4-10.4-23.6-26.6-34-34C208.4 8.1 171.8-2 137.5 1zm70.2 111.2c1.6 1.4 2.3 3.3 2.3 5.7 0 3.3-2.4 5.9-37.2 40.7-20.4 20.5-38.4 37.8-40 38.5-2.1.9-3.5.9-5.7-.1-1.6-.6-10.6-8.9-20-18.4C92.6 163.9 90 160.8 90 158.3c0-4.6 3.4-8.3 7.7-8.3 3.2 0 4.9 1.3 17.9 14.2l14.4 14.2 34.3-34.2c31.5-31.4 34.6-34.2 37.7-34.2 2.1 0 4.3.8 5.7 2.2z" fill="#2CA44E"/></svg>
